<svg width="500" height="332" viewBox="0 0 500 332" fill="none" xmlns="http://www.w3.org/2000/svg">
<path d="M235.357 156.088C232.375 158.275 228.776 161.789 227.468 166.808C226.522 170.537 227.431 172.724 227.104 177.528C226.886 180.862 226.013 185.559 223.214 191.151C216.852 189.861 206.164 188.606 193.549 191.474C186.023 193.195 179.988 195.884 175.553 198.322C176.244 198.752 177.189 199.254 178.389 199.577C185.187 201.405 192.349 195.776 192.567 196.171C192.785 196.529 184.569 200.33 185.005 203.628C185.296 205.851 189.332 207.034 193.512 208.289C197.039 209.328 200.383 210.332 204.855 209.83C210.999 209.149 215.252 206.102 217.143 204.524C218.961 205.421 221.651 206.604 225.032 207.643C231.248 209.508 239.828 212.089 245.536 208.576C249.244 206.281 250.371 200.903 252.48 190.219C255.024 177.205 256.224 170.68 252.807 165.338C248.335 158.203 239.137 156.554 235.357 156.088Z" fill="white" stroke="#161616" stroke-width="3" stroke-miterlimit="10"/>
<path d="M222.051 191.546C226.45 193.159 230.085 196.099 232.594 200.007C232.957 200.581 233.902 200.043 233.539 199.469C230.885 195.31 226.995 192.227 222.342 190.506C221.651 190.255 221.396 191.295 222.051 191.546Z" fill="#161616"/>
<path d="M198.638 198.609C194.312 199.326 190.822 202.194 189.259 206.209C189.004 206.855 190.059 207.141 190.313 206.496C191.731 202.839 195.003 200.294 198.929 199.648C199.62 199.541 199.329 198.501 198.638 198.609Z" fill="#161616"/>
<path d="M203.728 202.194C202.165 203.126 200.711 204.202 199.329 205.349C198.42 206.138 197.402 207.07 197.62 208.36C198.166 211.766 202.31 211.013 204.564 210.153C205.219 209.902 204.928 208.862 204.273 209.113C203.292 209.472 202.201 209.938 201.147 209.902C199.438 209.83 197.911 208.217 199.365 206.747C200.747 205.313 202.565 204.166 204.273 203.09C204.855 202.732 204.31 201.799 203.728 202.194Z" fill="#161616"/>
<path d="M269.275 111.954C267.421 112.564 265.058 113.496 262.404 114.787C261.641 115.145 259.714 116.113 257.642 117.44C254.443 119.447 252.116 121.563 249.462 124.216C246.081 127.622 242.664 131.028 238.592 136.477C235.175 141.066 229.867 148.272 226.05 158.849C224.523 163.043 223.65 166.664 223.141 169.246C225.141 168.099 226.959 167.525 228.376 167.202C236.556 165.374 244.409 169.461 251.861 173.297C254.661 174.731 256.878 176.129 258.405 177.097C259.205 173.225 260.005 169.318 260.805 165.445C261.495 162.183 262.15 158.885 262.841 155.622C263.895 154.726 265.313 153.399 266.876 151.678C269.821 148.38 275.674 141.819 276.473 132.713C277.455 122.208 271.129 114.177 269.275 111.954Z" fill="#3C7077"/>
<path d="M267.13 112.384C263.24 112.958 259.896 115.002 256.878 117.368C253.388 120.057 250.116 123.033 247.063 126.187C241.1 132.282 235.902 139.094 231.612 146.444C231.248 147.053 232.194 147.591 232.557 146.982C236.702 139.883 241.646 133.286 247.39 127.371C250.189 124.502 253.134 121.778 256.224 119.232C259.532 116.543 263.059 114.034 267.421 113.388C268.112 113.317 267.821 112.277 267.13 112.384Z" fill="#161616"/>
<path d="M265.603 151.535C262.913 154.224 260.15 156.841 257.351 159.387C256.842 159.853 257.605 160.605 258.114 160.139C260.914 157.594 263.677 154.977 266.367 152.288C266.84 151.786 266.076 151.033 265.603 151.535Z" fill="#161616"/>
<path d="M261.823 156.447C260.55 163.33 259.314 170.25 258.042 177.133C258.296 177.026 258.587 176.918 258.842 176.811C253.061 172.831 246.627 169.855 239.792 167.991C234.448 166.557 227.649 165.159 223.069 169.138C222.56 169.604 223.323 170.357 223.832 169.891C228.486 165.804 236.011 167.955 241.282 169.533C247.354 171.361 253.061 174.158 258.26 177.707C258.551 177.886 258.987 177.707 259.06 177.384C260.332 170.501 261.568 163.581 262.841 156.698C262.986 156.052 261.932 155.765 261.823 156.447Z" fill="#161616"/>
<path d="M231.866 145.942C228.086 153.22 223.359 160.713 223.032 169.138C222.996 169.819 224.087 169.819 224.123 169.138C224.45 160.928 229.103 153.614 232.812 146.48C233.102 145.87 232.157 145.333 231.866 145.942Z" fill="#161616"/>
<path opacity="0.4" d="M264.186 132.39C257.678 145.153 254.152 155.909 252.08 163.438C249.062 174.48 248.008 183.192 240.192 190.434C238.919 191.618 235.175 195.023 229.285 197.139C216.925 201.549 207.763 195.597 199.983 201.907C199.111 202.624 196.53 204.417 196.821 206.46C197.111 208.396 199.802 209.4 200.202 209.579C203.401 210.798 206.709 209.544 210.853 207.894C215.543 206.03 215.034 205.385 217.143 205.026C221.578 204.273 223.614 207.034 229.503 208.862C232.012 209.615 239.428 211.91 244.772 208.862C248.699 206.604 249.898 202.373 251.789 195.239C253.097 190.399 254.443 183.336 254.224 174.444C255.679 175.556 257.133 176.667 258.587 177.779C260.477 162.649 262.332 147.519 264.186 132.39Z" fill="#3D3D3D"/>
<path opacity="0.38" d="M262.004 147.914C257.024 157.2 254.588 165.051 253.279 170.357C250.662 181.005 251.498 186.025 247.935 193.518C244.118 201.656 237.938 206.819 233.648 209.759C236.047 210.296 241.828 211.3 246.008 208.074C248.953 205.815 249.717 202.588 250.844 197.318C252.261 190.829 253.752 183.443 255.206 175.341C256.333 176.058 257.46 176.775 258.587 177.492C259.75 167.668 260.877 157.773 262.004 147.914Z" fill="#3D3D3D"/>
<path d="M268.512 111.237C267.203 119.662 265.931 128.159 264.695 136.692C259.896 169.784 255.752 202.301 252.261 234.282C252.334 235.357 252.625 237.078 253.716 238.799C254.806 240.556 256.26 241.452 256.951 241.918C263.568 246.579 266.876 248.945 270.221 250.522C286.253 258.159 303.994 257.263 303.994 257.263C307.739 257.083 315.191 256.617 323.189 253.462C323.626 253.283 326.679 251.885 332.787 249.053C338.313 246.507 339.294 246.005 340.639 244.786C343.839 241.882 345.075 238.297 345.911 235.751C347.692 230.338 347.51 225.749 347.438 224.637C347.438 224.637 347.074 215.71 346.82 163.581C346.783 152.969 347.838 137.373 353.509 118.121C347.62 115.288 342.094 112.671 335.441 109.516C330.86 107.329 326.607 105.322 320.499 104.605C318.754 104.389 317.191 104.318 314.864 104.354C305.412 104.425 297.632 105.859 294.287 106.433C287.78 107.473 278.982 109.05 268.512 111.237Z" fill="#3C7077"/>
<path d="M268.221 112.492C279.491 110.126 290.87 108.226 302.285 106.827C302.794 106.756 303.085 106.11 302.576 105.824C302.431 105.752 302.285 105.644 302.104 105.573C301.486 105.214 300.94 106.146 301.558 106.505C301.704 106.576 301.849 106.684 302.031 106.756C302.14 106.433 302.213 106.075 302.322 105.752C290.797 107.15 279.309 109.05 267.967 111.452C267.24 111.596 267.53 112.635 268.221 112.492Z" fill="#161616"/>
<path d="M264.84 131.278C260.841 159.387 257.206 187.53 253.934 215.746C253.534 219.295 253.134 222.809 252.734 226.358C252.407 229.441 251.498 232.919 251.898 236.002C252.261 238.727 254.443 240.448 256.442 242.097C258.624 243.89 260.914 245.575 263.313 247.117C273.165 253.391 284.69 257.155 296.396 257.836C310.32 258.625 324.316 255.112 336.204 247.941C336.786 247.583 336.24 246.65 335.659 247.009C314.864 259.521 288.398 260.023 267.203 248.156C264.767 246.794 262.404 245.288 260.15 243.639C257.86 241.954 254.152 239.659 253.207 236.899C252.77 235.572 252.989 234.102 253.134 232.704C253.316 230.947 253.534 229.155 253.716 227.398C254.079 224.1 254.443 220.801 254.843 217.503C256.406 204.058 258.005 190.65 259.751 177.241C261.714 162.004 263.75 146.767 265.931 131.565C266.003 130.884 264.949 130.597 264.84 131.278Z" fill="#161616"/>
<path d="M318.39 104.282C324.789 105.537 330.787 108.441 336.75 110.915C342.603 113.352 349.11 115.324 354.272 119.053C354.854 119.447 355.399 118.515 354.818 118.121C349.764 114.464 343.402 112.528 337.695 110.162C331.514 107.616 325.298 104.569 318.681 103.242C317.991 103.099 317.7 104.138 318.39 104.282Z" fill="#161616"/>
<path d="M346.892 165.087C346.311 180.181 345.729 195.274 346.274 210.332C346.529 217.646 347.692 225.247 346.311 232.525C345.147 238.512 341.73 244.499 335.659 246.722C335.004 246.973 335.295 248.013 335.95 247.762C345.62 244.212 348.128 233.349 347.983 224.243C347.91 218.076 347.365 211.91 347.22 205.707C347.074 199.397 347.147 193.123 347.256 186.813C347.401 179.571 347.692 172.329 347.947 165.087C348.019 164.37 346.929 164.37 346.892 165.087Z" fill="#161616"/>
<path opacity="0.38" d="M341.657 156.59C339.731 163.115 336.713 170.25 332.06 177.348C311.228 208.934 273.093 215.244 263.349 216.571C276.437 217.933 289.67 219.403 303.049 220.98C317.809 222.701 332.387 224.53 346.747 226.394C345.838 210.368 345.838 197.175 346.056 187.745C346.456 168.242 347.874 152.467 345.293 151.965C344.675 151.822 343.584 152.503 341.657 156.59Z" fill="#3D3D3D"/>
<path opacity="0.42" d="M346.129 168.314C344.82 172.114 342.821 177.492 339.876 183.694C335.732 192.478 331.769 200.939 326.643 206.138C312.319 220.658 284.326 214.384 284.254 215.387C284.217 215.961 294.469 217.574 346.238 222.271C346.238 204.273 346.202 186.311 346.129 168.314Z" fill="#3D3D3D"/>
<path d="M411.349 316.132C277.928 298.564 144.47 280.997 11.0488 263.465C50.4208 240.95 89.8292 218.435 129.201 195.92C249.571 207.608 369.978 219.331 490.348 231.019C463.99 259.378 437.67 287.773 411.349 316.132Z" fill="white" stroke="#161616" stroke-width="3" stroke-miterlimit="10"/>
<path d="M9.74011 266.513C143.489 284.008 277.237 301.504 410.949 319" stroke="#161616" stroke-width="16" stroke-miterlimit="10"/>
<path d="M408.405 319.789C436.434 290.569 464.463 261.314 492.456 232.094" stroke="#161616" stroke-width="16" stroke-miterlimit="10"/>
<path d="M363.761 242.994C350.128 253.498 336.786 264.326 323.662 275.44C323.117 275.906 323.916 276.659 324.425 276.193C337.549 265.078 350.928 254.251 364.525 243.746C365.07 243.352 364.306 242.563 363.761 242.994Z" fill="#161616"/>
<path d="M324.171 276.013C328.461 276.91 332.823 276.91 337.222 276.945C342.166 277.017 346.82 277.519 351.546 278.881C360.416 281.427 369.105 283.112 378.376 282.897C379.066 282.897 379.066 281.821 378.376 281.821C373.613 281.929 368.851 281.642 364.125 280.889C359.689 280.172 355.472 278.882 351.146 277.698C347.002 276.551 342.857 276.013 338.531 275.942C333.805 275.834 329.079 275.977 324.425 275.009C323.771 274.83 323.48 275.87 324.171 276.013Z" fill="#161616"/>
<path d="M364.561 243.782C378.957 244.93 393.245 247.188 407.277 250.558C407.968 250.738 408.259 249.698 407.568 249.519C393.463 246.113 379.066 243.854 364.561 242.707C363.87 242.635 363.87 243.711 364.561 243.782Z" fill="#161616"/>
<path d="M379.212 282.252C389.355 272.356 399.098 262.031 408.332 251.275C408.768 250.738 408.005 249.985 407.568 250.522C398.334 261.242 388.591 271.568 378.448 281.499C377.939 282.001 378.703 282.754 379.212 282.252Z" fill="#161616"/>
<path d="M336.859 271.747C349.365 270.241 362.016 271.783 373.759 276.3C374.413 276.551 374.704 275.511 374.049 275.261C362.234 270.743 349.437 269.166 336.859 270.671C336.168 270.743 336.168 271.819 336.859 271.747Z" fill="#161616"/>
<path d="M355.799 267.803C363.507 268.377 371.105 269.56 378.63 271.317C379.321 271.496 379.612 270.456 378.921 270.277C371.323 268.484 363.616 267.301 355.799 266.728C355.072 266.692 355.109 267.767 355.799 267.803Z" fill="#161616"/>
<path d="M350.019 259.88C361.616 260.131 373.104 261.78 384.301 264.827C384.992 265.007 385.283 263.967 384.592 263.788C373.322 260.74 361.725 259.055 350.019 258.804C349.328 258.804 349.328 259.88 350.019 259.88Z" fill="#161616"/>
<path d="M364.415 256.582C370.668 257.442 376.849 258.518 383.029 259.808C383.72 259.952 384.011 258.912 383.32 258.769C377.14 257.478 370.959 256.402 364.706 255.542C364.016 255.434 363.725 256.474 364.415 256.582Z" fill="#161616"/>
<path d="M356.454 280.638C354.236 284.008 352.019 287.378 349.765 290.713C349.546 291.035 349.837 291.573 350.237 291.537C368.16 289.53 386.337 290.677 403.86 294.907C404.551 295.087 404.842 294.047 404.151 293.868C386.519 289.601 368.269 288.454 350.237 290.426C350.383 290.713 350.564 290.964 350.71 291.25C352.927 287.88 355.145 284.51 357.399 281.176C357.799 280.602 356.854 280.065 356.454 280.638Z" fill="#161616"/>
<path d="M400.406 260.274C407.423 260.131 414.403 259.987 421.419 259.844C421.238 259.629 421.056 259.378 420.91 259.163C416.075 270.528 411.204 281.857 406.369 293.222C406.114 293.868 407.168 294.154 407.423 293.509C412.258 282.144 417.129 270.815 421.965 259.45C422.11 259.127 421.747 258.768 421.456 258.768C414.439 258.912 407.459 259.055 400.443 259.199C399.716 259.235 399.716 260.31 400.406 260.274Z" fill="#161616"/>
<path d="M373.831 286.984C375.685 286.626 377.539 286.554 379.43 286.697C380.121 286.733 380.121 285.658 379.43 285.622C377.43 285.478 375.504 285.586 373.54 285.944C372.85 286.052 373.141 287.092 373.831 286.984Z" fill="#161616"/>
<path d="M384.156 287.092C389.864 287.307 395.571 287.845 401.243 288.705C401.933 288.813 402.224 287.773 401.533 287.665C395.789 286.769 389.973 286.231 384.156 286.016C383.465 285.98 383.465 287.056 384.156 287.092Z" fill="#161616"/>
<path d="M384.483 280.351C385.828 280.351 387.173 280.351 388.555 280.351C389.246 280.351 389.246 279.276 388.555 279.276C387.21 279.276 385.865 279.276 384.483 279.276C383.792 279.276 383.792 280.351 384.483 280.351Z" fill="#161616"/>
<path d="M392.954 280.244C397.425 280.351 401.861 280.782 406.296 281.499C406.987 281.606 407.277 280.567 406.587 280.459C402.079 279.742 397.534 279.312 392.954 279.168C392.263 279.168 392.263 280.244 392.954 280.244Z" fill="#161616"/>
<path d="M392.263 274.113C397.353 274.185 402.406 274.472 407.459 275.045C408.15 275.117 408.15 274.041 407.459 273.97C402.406 273.396 397.353 273.073 392.263 273.038C391.572 273.002 391.572 274.077 392.263 274.113Z" fill="#161616"/>
<path d="M358.126 286.016C360.562 286.088 362.961 285.801 365.361 285.227C366.051 285.048 365.761 284.008 365.07 284.188C362.779 284.761 360.489 285.012 358.126 284.94C357.435 284.94 357.435 286.016 358.126 286.016Z" fill="#161616"/>
<path d="M375.395 229.836C374.449 230.983 373.359 233.314 374.486 234.712C375.176 235.572 376.485 235.393 377.467 235.429C379.248 235.501 381.03 235.608 382.811 235.68C390.045 236.002 397.244 236.361 404.478 236.684C405.169 236.719 405.169 235.644 404.478 235.608C399.134 235.357 393.826 235.106 388.482 234.855C385.865 234.748 383.284 234.604 380.666 234.497C379.394 234.425 378.048 234.497 376.776 234.317C375.831 234.174 375.14 234.138 375.176 232.991C375.213 232.095 375.613 231.27 376.158 230.589C376.594 230.051 375.831 229.262 375.395 229.836Z" fill="#161616"/>
<path d="M376.376 231.198C382.484 231.413 388.591 231.593 394.699 231.808C397.68 231.915 400.697 231.987 403.678 232.095C406.369 232.202 409.204 232.381 411.131 234.425C411.604 234.927 412.367 234.174 411.895 233.672C410.44 232.095 408.477 231.485 406.369 231.198C403.242 230.804 400.007 230.876 396.844 230.768C390.009 230.553 383.174 230.302 376.376 230.087C375.685 230.123 375.685 231.198 376.376 231.198Z" fill="#161616"/>
<path d="M404.115 236.719C406.914 236.755 409.568 235.895 411.822 234.246C412.367 233.851 411.822 232.919 411.277 233.314C409.168 234.855 406.769 235.68 404.115 235.644C403.388 235.644 403.388 236.719 404.115 236.719Z" fill="#161616"/>
<path d="M404.987 231.198C403.46 232.202 402.77 234.066 403.278 235.787C403.46 236.433 404.515 236.182 404.333 235.5C403.969 234.246 404.405 232.847 405.532 232.095C406.114 231.736 405.569 230.804 404.987 231.198Z" fill="#161616"/>
<path d="M108.915 143.396C111.896 142.644 114.441 145.548 113.132 148.344C112.842 148.954 113.787 149.527 114.078 148.882C115.786 145.261 112.623 141.353 108.661 142.357C107.934 142.536 108.225 143.576 108.915 143.396Z" fill="#161616"/>
<path d="M256.551 268.377C212.381 260.92 168.21 253.462 124.039 246.005C150.869 235.321 177.698 224.673 204.528 213.989C246.481 223.203 288.434 232.417 330.351 241.631C305.776 250.558 281.163 259.45 256.551 268.377Z" fill="white" stroke="#161616" stroke-width="3" stroke-miterlimit="10"/>
<path d="M254.734 268.915C254.879 269.345 254.988 269.811 255.134 270.241C255.315 270.815 256.188 270.707 256.188 270.098C256.188 269.739 256.188 269.417 256.188 269.058C256.188 268.377 255.097 268.377 255.097 269.058C255.097 269.488 255.025 269.883 254.843 270.277C255.206 270.277 255.534 270.277 255.897 270.277C255.752 269.811 255.715 269.381 255.824 268.879C255.497 268.915 255.17 268.95 254.843 269.022C254.952 269.13 254.952 269.201 254.879 269.309C255.206 269.345 255.534 269.381 255.861 269.452C255.788 269.201 255.824 268.986 255.97 268.771C255.643 268.664 255.279 268.592 254.952 268.484C254.879 269.058 254.806 269.596 254.734 270.169C254.697 270.456 255.025 270.707 255.279 270.707C255.606 270.707 255.788 270.456 255.824 270.169C255.897 269.596 255.97 269.058 256.042 268.484C256.115 267.947 255.279 267.803 255.025 268.198C254.734 268.664 254.661 269.201 254.806 269.739C254.915 270.205 255.57 270.241 255.788 269.883C256.079 269.452 256.079 268.915 255.752 268.52C255.497 268.198 254.843 268.162 254.77 268.664C254.625 269.309 254.661 269.99 254.843 270.636C255.025 271.173 255.715 271.102 255.897 270.636C256.079 270.134 256.188 269.632 256.188 269.13C255.824 269.13 255.461 269.13 255.097 269.13C255.097 269.488 255.097 269.811 255.097 270.169C255.461 270.134 255.824 270.062 256.152 270.026C256.006 269.596 255.897 269.13 255.752 268.699C255.606 267.947 254.552 268.233 254.734 268.915Z" fill="#161616"/>
<path d="M255.57 271.496C261.423 268.52 267.821 266.943 274.111 265.186C277.201 264.326 280.255 263.393 283.199 262.174C286.035 261.027 288.762 259.593 291.561 258.302C297.777 255.434 304.503 253.57 311.01 251.455C317.772 249.232 324.498 247.009 331.26 244.822C331.914 244.607 331.623 243.567 330.969 243.782C324.207 246.005 317.482 248.228 310.72 250.415C304.321 252.494 297.741 254.359 291.597 257.119C288.398 258.553 285.271 260.238 282 261.493C279.019 262.64 275.965 263.537 272.875 264.397C266.803 266.118 260.659 267.696 254.988 270.564C254.406 270.886 254.952 271.819 255.57 271.496Z" fill="#161616"/>
<path d="M256.079 271.281C281.2 262.712 306.248 254.036 331.296 245.216C333.26 244.535 332.423 241.416 330.424 242.097C305.412 250.917 280.327 259.593 255.206 268.162C253.243 268.843 254.079 271.962 256.079 271.281Z" fill="#161616"/>
<path d="M253.243 236.648C257.969 237.114 262.005 239.946 266.658 240.842C267.349 240.986 267.64 239.946 266.949 239.803C262.223 238.871 258.115 236.038 253.243 235.572C252.552 235.536 252.552 236.612 253.243 236.648Z" fill="#161616"/>
<path d="M266.985 240.34C269.857 238.799 272.547 236.97 274.983 234.819C275.492 234.353 274.729 233.6 274.22 234.066C271.82 236.146 269.239 237.938 266.44 239.408C265.822 239.767 266.367 240.699 266.985 240.34Z" fill="#161616"/>
<path d="M254.37 234.604C256.66 232.991 259.024 231.449 261.459 230.015C262.077 229.657 261.496 228.724 260.914 229.083C258.478 230.517 256.115 232.023 253.825 233.672C253.243 234.102 253.788 235.034 254.37 234.604Z" fill="#161616"/>
<path d="M261.641 230.194C265.785 231.736 269.93 233.242 274.111 234.783C274.765 235.034 275.056 233.995 274.401 233.744C270.257 232.202 266.113 230.696 261.932 229.155C261.277 228.94 260.987 229.979 261.641 230.194Z" fill="#161616"/>
<path d="M249.971 240.735C260.914 244.069 271.711 247.905 282.29 252.243C282.945 252.494 283.236 251.455 282.581 251.204C272.002 246.866 261.205 243.029 250.262 239.695C249.571 239.48 249.281 240.52 249.971 240.735Z" fill="#161616"/>
<path d="M251.026 249.088C257.824 252.315 264.695 255.363 271.639 258.338C272.293 258.625 272.838 257.693 272.184 257.406C265.24 254.466 258.369 251.383 251.571 248.156C250.953 247.869 250.408 248.802 251.026 249.088Z" fill="#161616"/>
<path d="M252.007 258.302C255.715 260.167 259.423 262.067 263.131 263.931C263.749 264.254 264.295 263.322 263.677 262.999C259.969 261.135 256.26 259.235 252.552 257.37C251.934 257.048 251.389 257.98 252.007 258.302Z" fill="#161616"/>
<path d="M254.116 258.625C259.242 254.323 264.622 250.379 270.221 246.722C270.802 246.328 270.257 245.396 269.675 245.79C264.004 249.483 258.551 253.534 253.352 257.872C252.807 258.338 253.57 259.091 254.116 258.625Z" fill="#161616"/>
<path d="M252.77 251.275C255.679 249.268 258.587 247.26 261.496 245.216C262.077 244.822 261.532 243.89 260.95 244.284C258.042 246.292 255.134 248.3 252.225 250.343C251.68 250.738 252.225 251.67 252.77 251.275Z" fill="#161616"/>
<path d="M254.588 270.851C208.891 263.178 163.193 255.506 117.495 247.834C113.205 215.818 108.879 183.838 104.589 151.822C153.777 158.347 202.928 164.872 252.116 171.433C252.952 204.56 253.788 237.687 254.588 270.851Z" fill="white" stroke="#161616" stroke-width="3" stroke-miterlimit="10"/>
<path d="M173.154 215.459C169.191 214.24 167.046 210.942 166.719 206.962C166.392 202.911 167.192 199.003 171.009 196.888C174.39 195.023 178.425 195.561 181.443 197.82C184.46 200.079 187.15 204.704 184.715 208.253C184.315 208.827 185.26 209.364 185.66 208.791C188.277 204.99 185.805 199.971 182.606 197.354C179.298 194.665 174.826 193.84 170.936 195.74C166.428 197.927 165.265 202.373 165.629 206.998C165.992 211.48 168.391 215.172 172.863 216.535C173.517 216.714 173.808 215.674 173.154 215.459Z" fill="#161616"/>
<path d="M174.172 215.854C172.5 213.129 173.045 209.328 175.735 207.428C178.425 205.528 182.279 206.317 184.315 208.755C184.751 209.293 185.515 208.54 185.078 208.002C182.679 205.17 178.171 204.381 175.044 206.568C171.918 208.791 171.264 213.236 173.227 216.391C173.59 216.965 174.535 216.427 174.172 215.854Z" fill="#161616"/>
<path d="M177.917 217.359C176.208 215.567 176.462 212.232 178.753 210.942C181.007 209.651 184.06 211.121 184.787 213.487C185.006 214.133 186.06 213.882 185.842 213.201C184.897 210.189 181.079 208.396 178.207 210.045C175.335 211.695 174.972 215.854 177.153 218.148C177.626 218.614 178.389 217.861 177.917 217.359Z" fill="#161616"/>
<path d="M180.716 219.869C182.134 220.371 183.77 219.546 184.315 218.22C184.897 216.893 184.133 215.459 182.861 214.885C181.588 214.312 180.061 214.634 179.371 215.853C178.716 217.037 178.934 218.65 180.025 219.51C180.57 219.941 181.334 219.188 180.788 218.757C179.334 217.646 180.352 215.029 182.279 215.818C183.115 216.14 183.697 217.001 183.297 217.897C182.897 218.757 181.879 219.188 181.007 218.865C180.352 218.614 180.061 219.654 180.716 219.869Z" fill="#161616"/>
<path d="M252.116 171.397L255.315 270.169" stroke="#161616" stroke-width="3" stroke-miterlimit="10"/>
<path d="M252.334 171.325C253.316 203.807 254.297 236.289 255.279 268.771" stroke="#161616" stroke-width="3" stroke-miterlimit="10"/>
<path opacity="0.37" d="M189.404 164.728C191.767 165.947 212.053 176.846 213.471 196.207C214.271 206.89 208.963 214.993 205.619 219.941C187.587 246.686 151.923 251.419 142.253 252.423C156.322 261.637 205.473 292.003 259.205 290.211C271.166 289.816 289.707 288.992 309.811 278.093C324.898 269.918 334.677 259.414 340.276 252.423C336.822 250.307 333.405 248.228 329.951 246.113C304.576 254.681 279.164 263.25 253.788 271.783C252.48 238.655 251.171 205.564 249.862 172.437C229.685 169.927 209.545 167.346 189.404 164.728Z" fill="#3D3D3D"/>
<path opacity="0.5" d="M160.503 254.753C165.229 257.836 172.536 262.246 181.988 266.477C193.767 271.783 228.631 287.486 266.403 278.774C293.851 272.428 315.082 255.04 313.701 252.172C312.828 250.379 302.176 252.243 254.734 270.851C253.97 255.685 253.207 240.484 252.48 225.318C251.171 238.082 249.826 250.845 248.517 263.573C219.179 260.669 189.841 257.693 160.503 254.753Z" fill="#3D3D3D"/>
<path d="M170.282 213.882C167.628 211.014 166.756 206.998 168.064 203.485C169.409 199.935 172.972 196.888 177.226 197.031C180.97 197.175 183.988 199.756 185.078 202.194C185.878 204.058 185.696 205.779 185.696 205.779C185.587 206.747 185.26 207.5 185.006 207.966C183.151 205.851 180.316 204.883 177.662 205.492C174.39 206.245 172.972 209.006 172.827 209.257C171.336 212.268 172.645 215.065 172.827 215.387C171.954 214.85 171.118 214.348 170.282 213.882Z" fill="#2B7A78"/>
<path d="M354.236 168.493C352.273 169.927 350.164 171.863 348.237 174.409C341.076 183.909 342.057 195.059 342.566 198.68C336.204 197.39 325.516 196.135 312.901 199.003C305.375 200.724 299.341 203.413 294.905 205.851C295.596 206.281 296.541 206.783 297.741 207.106C304.539 208.934 311.701 203.305 311.919 203.7C312.137 204.058 303.921 207.859 304.357 211.157C304.648 213.38 308.684 214.563 312.864 215.818C316.391 216.857 319.735 217.861 324.207 217.359C330.351 216.678 334.604 213.631 336.495 212.053C338.313 212.95 341.003 214.133 344.384 215.172C350.6 217.037 359.18 219.618 364.888 216.104C368.596 213.81 369.723 208.432 371.832 197.748C374.522 184.053 375.867 177.205 372.159 172.867C367.251 167.095 357.399 168.063 354.236 168.493Z" fill="white" stroke="#161616" stroke-width="3" stroke-miterlimit="10"/>
<path d="M341.33 199.039C345.729 200.652 349.364 203.592 351.873 207.5C352.236 208.074 353.182 207.536 352.818 206.962C350.164 202.803 346.274 199.72 341.621 197.999C340.967 197.784 340.676 198.824 341.33 199.039Z" fill="#161616"/>
<path d="M317.954 206.138C313.628 206.855 310.138 209.723 308.575 213.738C308.32 214.384 309.374 214.67 309.629 214.025C311.047 210.368 314.319 207.823 318.245 207.177C318.936 207.07 318.645 206.03 317.954 206.138Z" fill="#161616"/>
<path d="M309.084 214.419C311.338 216.535 314.464 217.252 317.409 216.32C318.063 216.104 317.772 215.065 317.118 215.28C314.537 216.104 311.81 215.531 309.847 213.667C309.338 213.165 308.575 213.918 309.084 214.419Z" fill="#161616"/>
<path d="M323.007 209.687C321.444 210.619 319.99 211.695 318.608 212.842C317.7 213.631 316.682 214.563 316.9 215.854C317.445 219.259 321.59 218.507 323.844 217.646C324.498 217.395 324.207 216.355 323.553 216.606C322.571 216.965 321.48 217.431 320.426 217.395C318.717 217.323 317.191 215.71 318.645 214.24C320.026 212.806 321.844 211.659 323.553 210.583C324.171 210.261 323.625 209.328 323.007 209.687Z" fill="#161616"/>
<path d="M352.418 117.332C353.909 118.479 355.835 120.057 357.871 122.1C358.453 122.674 359.944 124.18 361.434 126.044C363.761 128.912 365.251 131.637 366.887 134.971C368.996 139.238 371.104 143.504 373.213 149.886C374.994 155.264 377.721 163.725 378.048 174.982C378.194 179.428 377.903 183.156 377.612 185.774C376.121 184.089 374.631 182.977 373.395 182.26C366.451 178.065 358.017 179.571 350.055 181.005C347.074 181.543 344.602 182.188 342.893 182.655C343.33 178.711 343.729 174.767 344.166 170.823C344.529 167.525 344.856 164.191 345.22 160.856C344.529 159.673 343.584 157.988 342.711 155.873C341.003 151.822 337.586 143.863 339.549 134.935C341.875 124.682 350.055 118.874 352.418 117.332Z" fill="#3C7077"/>
<path d="M353.691 119.304C357.326 121.168 359.762 124.395 361.87 127.729C364.052 131.171 366.015 134.72 367.76 138.377C371.323 145.834 373.94 153.722 375.649 161.789C375.794 162.47 376.849 162.183 376.703 161.502C374.958 153.112 372.195 144.974 368.414 137.23C366.56 133.43 364.524 129.737 362.198 126.187C360.125 123.033 357.69 120.093 354.272 118.336C353.618 118.049 353.073 118.981 353.691 119.304Z" fill="#161616"/>
<path d="M342.348 155.765C344.02 159.136 345.765 162.434 347.583 165.732C347.91 166.342 348.855 165.804 348.528 165.195C346.711 161.896 344.966 158.598 343.293 155.228C342.966 154.582 342.021 155.12 342.348 155.765Z" fill="#161616"/>
<path d="M344.929 161.932C344.02 168.887 343.111 175.843 342.239 182.798C342.203 183.156 342.639 183.407 342.93 183.3C349.11 181.364 355.545 180.432 362.016 180.647C367.142 180.826 373.94 181.292 376.812 186.24C377.176 186.849 378.085 186.311 377.757 185.702C375.031 180.969 369.069 180.001 364.052 179.679C356.817 179.177 349.546 180.109 342.675 182.26C342.893 182.439 343.148 182.619 343.366 182.762C344.275 175.807 345.184 168.851 346.056 161.896C346.129 161.251 345.038 161.251 344.929 161.932Z" fill="#161616"/>
<path d="M375.576 161.251C376.849 169.138 378.921 177.492 376.776 185.415C376.594 186.096 377.648 186.383 377.83 185.702C380.011 177.599 377.939 169.067 376.63 160.964C376.521 160.283 375.467 160.57 375.576 161.251Z" fill="#161616"/>
<path opacity="0.32" d="M349.655 116.005C352.964 122.1 356.272 129.378 359.071 137.732C364.561 154.224 366.015 169.031 366.124 180.109C362.416 180.324 358.708 180.539 354.999 180.754C356.199 189.251 357.435 197.784 358.635 206.281C356.308 204.954 352.745 203.269 348.165 202.266C346.674 201.943 341.185 200.867 335.332 201.835C323.044 203.879 315.627 213.81 313.955 216.176C315.627 216.857 317.772 217.503 320.353 217.646C328.279 218.112 334.059 213.595 335.768 212.161C341.185 214.85 345.911 216.14 349.255 216.786C355.108 217.969 361.943 219.331 365.724 215.746C366.015 215.459 366.669 214.778 368.087 211.3C370.305 205.779 371.468 200.616 372.995 191.259C373.322 189.18 373.795 186.383 374.267 183.049C375.176 183.945 376.121 184.877 377.03 185.774C377.466 184.16 378.012 181.758 378.303 178.818C379.066 171.182 377.576 165.159 376.158 160.247C370.45 140.385 367.033 128.41 355.617 119.734C353.254 118.013 351.073 116.758 349.655 116.005Z" fill="#3D3D3D"/>
<path opacity="0.29" d="M368.887 140.564C371.323 152.252 371.65 162.183 371.468 169.353C371.286 176.022 370.595 180.898 369.868 185.809C367.723 200.616 366.633 208.002 362.488 211.444C354.636 217.969 340.639 213.021 337.295 211.766C340.458 213.846 351.837 220.909 362.961 217.001C364.124 216.571 365.397 216.033 366.633 215.244C367.942 213.057 369.687 209.687 370.814 205.277C371.468 202.66 371.65 200.76 371.904 198.537C372.304 194.952 372.995 189.717 374.158 183.156C375.213 184.053 376.303 184.949 377.357 185.845C377.721 184.017 378.194 181.22 378.303 177.779C378.63 169.461 376.776 163.151 374.631 155.945C373.468 152.001 371.65 146.695 368.887 140.564Z" fill="#3D3D3D"/>
<path d="M268.948 46.4525C269.312 50.2887 269.966 55.6665 271.42 62.0123C272.366 66.1353 272.947 68.7525 274.183 72.015C276.037 76.9268 279.564 86.32 288.761 92.4507C290.979 93.9565 294.651 95.9642 299.813 97.1474C300.649 97.2191 301.486 97.3266 302.322 97.3983C302.613 98.9041 302.976 101.127 303.34 103.816C304.212 110.735 303.776 112.851 305.594 114.715C307.811 116.974 311.338 116.758 312.101 116.687C318.172 116.292 321.226 110.341 321.372 110.018C320.39 108.261 319.408 106.11 318.609 103.601C316.864 98.0437 316.827 93.0961 317.118 89.726C319.917 85.7464 323.008 82.699 326.134 80.3327C327.334 79.4364 328.352 78.2175 330.133 77.608C332.678 76.7475 333.987 77.608 335.877 77.0343C339.004 76.0663 340.349 72.0868 340.93 70.4376C343.148 63.9125 340.421 57.4591 338.676 53.6229C337.113 50.1094 333.041 41.3974 323.117 34.5855C312.901 27.5585 292.47 19.7427 278.946 29.8889C276.619 31.6456 271.311 36.3422 268.948 46.4525Z" fill="white"/>
<path d="M270.475 61.2236C268.148 60.8292 262.259 59.4668 258.442 54.4834C252.625 46.9186 255.752 36.3422 258.987 30.7493C264.077 21.9655 273.347 18.9181 284.981 15.0819C291.888 12.8233 298.468 10.6721 307.411 11.0307C312.356 11.2458 329.115 11.9628 339.149 24.2601C345.111 31.538 345.765 39.3538 347.074 54.7702C347.692 61.833 347.22 65.6692 345.984 69.3261C345.075 71.9792 342.13 80.4761 333.659 83.8821C329.224 85.6747 325.116 85.3162 322.862 84.9576C324.898 81.9819 326.934 79.042 329.006 76.0663C330.169 76.138 334.314 76.2097 337.477 73.3774C341.803 69.4695 342.566 61.6896 339.403 59.6102C337.077 58.0686 332.46 59.5744 328.461 63.1237C328.097 60.865 327.515 58.3913 326.534 55.8458C321.953 43.6919 311.992 37.0234 307.121 34.2628C305.194 36.7007 299.086 43.8353 288.253 46.6676C279.673 48.8904 272.547 47.313 269.384 46.3808C269.748 51.3284 270.112 56.276 270.475 61.2236Z" fill="#17252A"/>
<path d="M268.657 47.3847C270.148 58.463 271.711 69.9715 277.201 79.9384C281.709 88.1126 288.98 95.1038 298.323 97.4342C299.014 97.6134 299.304 96.5737 298.614 96.3945C289.38 94.0641 282.254 87.0371 277.892 78.8987C272.693 69.2186 271.202 58.1044 269.748 47.3847C269.639 46.7035 268.548 46.7035 268.657 47.3847Z" fill="#161616"/>
<path d="M298.323 97.5776C304.903 97.5776 311.81 94.0999 316.973 90.3713C322.171 86.6069 326.425 81.7669 329.479 76.1739C329.806 75.5644 328.861 75.0267 328.533 75.6362C325.589 81.0857 321.481 85.8181 316.427 89.4392C311.374 93.0961 304.685 96.502 298.323 96.502C297.596 96.502 297.596 97.5776 298.323 97.5776Z" fill="#161616"/>
<path d="M316.936 89.5109C316.209 96.753 317.627 103.995 320.972 110.484C321.299 111.094 322.244 110.556 321.917 109.947C318.645 103.601 317.336 96.5737 318.027 89.5109C318.1 88.8297 317.009 88.8297 316.936 89.5109Z" fill="#161616"/>
<path d="M301.122 97.3983C302.322 101.485 303.303 105.644 304.03 109.839C304.503 112.635 304.685 115.79 307.848 116.83C312.574 118.408 319.554 115.611 321.372 110.986C321.626 110.341 320.572 110.054 320.317 110.699C319.299 113.317 316.755 114.751 314.137 115.504C311.956 116.113 308.647 116.758 306.793 115.002C305.703 113.962 305.557 112.313 305.339 110.915C305.085 109.445 304.83 107.975 304.539 106.505C303.885 103.35 303.122 100.195 302.213 97.1115C301.995 96.4662 300.94 96.753 301.122 97.3983Z" fill="#161616"/>
<path d="M302.685 101.844C309.156 101.019 313.41 96.1435 316.536 90.9091C316.9 90.2996 315.955 89.7618 315.591 90.3713C312.719 95.2472 308.72 100.016 302.685 100.768C301.995 100.876 301.995 101.952 302.685 101.844Z" fill="#161616"/>
<path d="M302.431 98.1871C307.484 97.6134 312.028 95.283 315.409 91.5186C315.882 91.0167 315.119 90.2279 314.646 90.7657C311.483 94.3151 307.193 96.5737 302.431 97.1115C301.776 97.1832 301.74 98.2588 302.431 98.1871Z" fill="#161616"/>
<path d="M302.613 97.3984C306.684 96.8247 310.356 95.1755 313.483 92.5583C314.028 92.0922 313.228 91.3393 312.719 91.8054C309.738 94.3151 306.212 95.8567 302.322 96.3945C301.631 96.4662 301.922 97.5059 302.613 97.3984Z" fill="#161616"/>
<path d="M302.394 98.2946C302.576 99.155 302.54 100.876 303.631 101.163C304.685 101.45 306.284 100.231 307.121 99.7287C309.993 98.0078 312.392 95.6774 314.282 92.9526C314.682 92.379 313.737 91.8412 313.337 92.4149C311.992 94.3867 310.356 96.1435 308.429 97.5776C307.52 98.2587 306.575 98.8324 305.594 99.3702C305.194 99.5853 304.285 100.195 303.885 99.9438C303.631 99.8004 303.521 98.2587 303.485 98.0078C303.303 97.3266 302.249 97.6134 302.394 98.2946Z" fill="#161616"/>
<path d="M302.903 99.2985C306.03 98.0437 308.975 96.4662 311.738 94.566C312.319 94.1716 311.774 93.2395 311.192 93.6339C308.502 95.4982 305.666 97.0398 302.613 98.2588C301.958 98.5097 302.249 99.5494 302.903 99.2985Z" fill="#161616"/>
<path d="M303.449 100.374C306.939 99.1551 309.993 97.2549 312.537 94.6019C313.01 94.1 312.247 93.3471 311.774 93.849C309.338 96.3228 306.466 98.1871 303.158 99.3343C302.504 99.5853 302.794 100.625 303.449 100.374Z" fill="#161616"/>
<path d="M304.03 99.8004C306.612 98.689 308.975 97.1832 311.01 95.2472C311.519 94.7811 310.756 94.0282 310.247 94.4943C308.248 96.3586 305.994 97.7927 303.485 98.8682C302.831 99.1551 303.376 100.087 304.03 99.8004Z" fill="#161616"/>
<path d="M274.329 74.6322C268.403 72.5528 266.44 64.9163 267.021 59.3951C267.639 53.3361 273.165 46.7394 279.927 49.5717C283.163 50.934 284.363 54.4475 285.235 57.5667C286.144 60.8651 286.544 64.522 285.671 67.8921C284.908 70.8678 283.054 73.7001 280.145 74.9908C277.237 76.2814 273.783 75.5644 271.82 73.0906C271.384 72.5528 270.621 73.3057 271.057 73.8435C274.365 78.0382 280.582 77.2136 283.926 73.5208C288.18 68.8242 287.744 61.6897 285.926 56.0609C285.09 53.4437 283.999 50.7189 281.563 49.2131C279.455 47.8866 276.764 47.564 274.401 48.1734C268.876 49.6434 266.004 55.4155 265.894 60.6858C265.785 66.458 268.076 73.5925 274.111 75.6719C274.692 75.8871 274.983 74.8473 274.329 74.6322Z" fill="#161616"/>
<path d="M286.907 63.9125C290.47 61.7972 294.796 61.5821 298.505 63.4105C299.123 63.7332 299.668 62.801 299.05 62.4784C294.978 60.4707 290.252 60.6499 286.326 62.9803C285.78 63.3388 286.326 64.271 286.907 63.9125Z" fill="#161616"/>
<path d="M304.285 71.549C300.177 67.6411 298.468 61.5821 300.068 56.1326C301.74 50.468 307.484 45.5921 313.664 47.5998C320.499 49.8226 320.863 59.4668 319.081 65.1315C318.027 68.4657 315.918 71.7999 312.428 73.0189C308.938 74.2379 305.921 72.4094 303.122 70.4734C302.54 70.079 301.995 71.0112 302.576 71.4056C304.867 73.0189 307.339 74.6323 310.247 74.5247C313.01 74.4171 315.518 72.9114 317.227 70.8678C321.081 66.2787 321.844 59.2876 320.245 53.6947C318.79 48.6037 314.501 45.3053 309.011 46.2016C303.776 47.0262 299.922 51.6869 298.759 56.5628C297.414 62.1916 299.232 68.2864 303.449 72.3019C304.03 72.8038 304.794 72.0151 304.285 71.549Z" fill="#161616"/>
<path d="M277.637 59.7536C277.273 62.0123 277.673 64.1993 278.909 66.1353C279.164 66.5297 279.746 66.4579 279.891 65.9919C280.763 63.5181 279.527 61.0802 278.291 58.9649C278.037 58.4988 277.273 58.7139 277.273 59.2517C277.31 61.1519 277.71 63.0162 278.437 64.7729C278.691 65.4182 279.746 65.1314 279.491 64.4861C278.8 62.8011 278.4 61.0802 278.364 59.2517C278.037 59.3593 277.673 59.431 277.346 59.5385C278.473 61.4387 279.636 63.5181 278.837 65.7409C279.164 65.7051 279.491 65.6692 279.818 65.5975C278.728 63.9125 278.328 62.0123 278.655 60.0405C278.8 59.3593 277.746 59.0724 277.637 59.7536Z" fill="#161616"/>
<path d="M309.811 58.7498C309.811 58.2837 309.774 58.1761 309.556 57.7818C309.302 57.3157 308.538 57.5308 308.538 58.0686C308.575 60.2914 308.756 62.6935 310.501 64.271C310.865 64.5936 311.374 64.3427 311.447 63.8766C311.737 61.2236 310.938 58.7498 309.265 56.6703C308.902 56.2401 308.248 56.7062 308.357 57.2081C308.793 58.9649 309.338 60.6858 309.992 62.335C310.247 62.9803 311.301 62.6935 311.047 62.0481C310.356 60.3631 309.811 58.6781 309.411 56.9213C309.12 57.1006 308.793 57.2798 308.502 57.4591C309.993 59.3234 310.611 61.5462 310.356 63.9125C310.683 63.769 310.974 63.6615 311.301 63.5181C309.738 62.1199 309.665 60.0046 309.629 58.0686C309.302 58.1761 308.938 58.2478 308.611 58.3554C308.647 58.4988 308.684 58.6422 308.72 58.7856C308.72 59.431 309.811 59.431 309.811 58.7498Z" fill="#161616"/>
<path d="M290.543 65.8126C289.816 67.9638 289.198 70.1508 288.798 72.3736C288.58 73.5567 287.816 75.7795 288.362 76.9626C289.452 79.3647 294.287 77.8948 295.96 77.1061C296.578 76.8192 296.032 75.8871 295.414 76.1739C294.069 76.8192 292.615 77.1419 291.124 77.0344C290.252 76.9627 289.561 76.8192 289.379 75.8512C289.27 75.3134 289.634 73.9152 289.743 73.3057C290.179 70.8319 290.834 68.4298 291.633 66.0636C291.815 65.4541 290.761 65.1673 290.543 65.8126Z" fill="#161616"/>
<path d="M296.032 86.4993C298.759 86.1408 301.122 84.4198 302.322 81.946C302.613 81.3366 301.667 80.7629 301.377 81.4083C300.286 83.6669 298.25 85.1369 295.742 85.4596C295.051 85.5671 295.378 86.6068 296.032 86.4993Z" fill="#161616"/>
<path d="M275.347 56.6703C276.037 55.8457 277.31 55.7023 278.182 56.4194C278.728 56.8855 279.491 56.0967 278.946 55.6665C277.673 54.5909 275.71 54.6626 274.583 55.9175C274.111 56.4194 274.874 57.1723 275.347 56.6703Z" fill="#161616"/>
<path d="M306.539 54.6627C307.666 53.6947 309.375 53.6947 310.502 54.6268C311.047 55.057 311.81 54.3041 311.265 53.8739C309.665 52.5115 307.339 52.5474 305.739 53.9098C305.23 54.3758 306.03 55.1287 306.539 54.6627Z" fill="#161616"/>
<path d="M320.862 59.6103C324.789 58.2479 328.824 57.4233 333.005 57.2082C333.696 57.1723 333.696 56.0967 333.005 56.1326C328.752 56.3477 324.607 57.1723 320.572 58.5705C319.917 58.8215 320.172 59.8612 320.862 59.6103Z" fill="#161616"/>
<path opacity="0.4" d="M326.279 14.9385C328.461 17.6991 336.859 29.0284 335.295 44.5882C334.423 53.2644 330.787 59.6461 328.497 63.0162C329.806 62.0123 330.933 61.3311 331.769 60.865C333.987 59.6461 335.404 58.8932 337.222 59.0007C337.768 59.0366 339.076 59.1441 340.021 59.897C342.784 62.1916 341.839 70.33 336.931 74.1303C334.241 76.2097 331.078 76.4248 329.479 76.389C327.406 79.293 325.298 82.197 323.226 85.1369C324.607 85.352 326.716 85.5313 329.151 85.1727C330.206 85.0293 334.423 84.2764 338.422 81.1215C342.348 78.0023 343.948 74.202 345.002 71.6207C347.91 64.4502 347.329 58.1403 346.311 46.7752C345.875 41.72 345.62 39.1387 344.602 35.7327C343.512 32.04 341.803 26.5905 336.931 21.7146C333.441 18.1294 329.515 16.1217 326.279 14.9385Z" fill="#3D3D3D"/>
<path opacity="0.48" d="M291.161 45.5921C294.796 42.4013 298.868 38.3141 302.794 33.2231C305.23 30.0681 307.266 27.0207 308.938 24.1884C308.32 27.4151 307.702 30.6418 307.121 33.8685C305.703 35.8762 303.34 38.7444 299.668 41.3616C296.432 43.6202 293.379 44.875 291.161 45.5921Z" fill="#3D3D3D"/>
<path opacity="0.27" d="M317.009 41.5049C319.772 50.5755 319.99 58.1762 319.736 63.1955C319.554 66.9241 318.536 86.4635 308.102 93.2036C307.084 93.849 304.503 95.3548 304.612 95.5699C304.757 95.8208 309.593 93.7056 312.246 92.2715C316.427 90.0487 322.862 85.5672 328.824 76.1022C329.806 76.2098 334.605 76.5324 338.058 73.2699C342.239 69.362 342.966 61.6897 339.658 59.431C337.295 57.8176 332.787 59.18 328.824 62.4067C328.424 60.7575 327.915 59.0366 327.225 57.2082C324.498 50.1094 320.39 44.9467 317.009 41.5049Z" fill="#3D3D3D"/>
<path opacity="0.36" d="M308.248 95.283C309.193 98.1512 310.138 101.019 311.083 103.923C312.392 107.867 313.664 111.847 314.937 115.79C315.664 115.647 317.445 115.145 319.009 113.568C320.572 111.99 321.081 110.269 321.263 109.552C319.845 106.792 318.172 102.597 317.591 97.2907C317.3 94.5301 317.373 92.0922 317.591 90.0486C314.501 91.8054 311.374 93.5621 308.248 95.283Z" fill="#3D3D3D"/>
<path opacity="0.43" d="M290.107 67.0674C288.289 70.9036 286.471 74.7039 284.653 78.5401C287.634 78.4684 290.579 78.4325 293.56 78.3608C291.815 77.823 290.034 77.2853 288.289 76.7475C288.87 73.5208 289.488 70.2941 290.107 67.0674Z" fill="#3D3D3D"/>
</svg>
