<svg width="173" height="94" viewBox="0 0 173 94" fill="none" xmlns="http://www.w3.org/2000/svg">
<g opacity="0.4">
<path opacity="0.4" d="M6.38995 12.7798C9.919 12.7798 12.7798 9.91894 12.7798 6.3899C12.7798 2.86086 9.919 0 6.38995 0C2.86091 0 0 2.86086 0 6.3899C0 9.91894 2.86091 12.7798 6.38995 12.7798Z" fill="#3C7077"/>
<path opacity="0.4" d="M33.0145 12.7798C36.5436 12.7798 39.4044 9.91894 39.4044 6.3899C39.4044 2.86086 36.5436 0 33.0145 0C29.4855 0 26.6246 2.86086 26.6246 6.3899C26.6246 9.91894 29.4855 12.7798 33.0145 12.7798Z" fill="#3C7077"/>
<path opacity="0.4" d="M59.6392 12.7798C63.1682 12.7798 66.0291 9.91894 66.0291 6.3899C66.0291 2.86086 63.1682 0 59.6392 0C56.1101 0 53.2493 2.86086 53.2493 6.3899C53.2493 9.91894 56.1101 12.7798 59.6392 12.7798Z" fill="#3C7077"/>
<path opacity="0.4" d="M86.2637 12.7798C89.7927 12.7798 92.6536 9.91894 92.6536 6.3899C92.6536 2.86086 89.7927 0 86.2637 0C82.7346 0 79.8738 2.86086 79.8738 6.3899C79.8738 9.91894 82.7346 12.7798 86.2637 12.7798Z" fill="#3C7077"/>
<path opacity="0.4" d="M112.888 12.7798C116.417 12.7798 119.278 9.91894 119.278 6.3899C119.278 2.86086 116.417 0 112.888 0C109.359 0 106.498 2.86086 106.498 6.3899C106.498 9.91894 109.359 12.7798 112.888 12.7798Z" fill="#3C7077"/>
<path opacity="0.4" d="M139.513 12.7798C143.042 12.7798 145.903 9.91894 145.903 6.3899C145.903 2.86086 143.042 0 139.513 0C135.984 0 133.123 2.86086 133.123 6.3899C133.123 9.91894 135.984 12.7798 139.513 12.7798Z" fill="#3C7077"/>
<path opacity="0.4" d="M166.137 12.7798C169.666 12.7798 172.527 9.91894 172.527 6.3899C172.527 2.86086 169.666 0 166.137 0C162.608 0 159.748 2.86086 159.748 6.3899C159.748 9.91894 162.608 12.7798 166.137 12.7798Z" fill="#3C7077"/>
<path opacity="0.4" d="M6.38995 33.0145C9.919 33.0145 12.7798 30.1536 12.7798 26.6246C12.7798 23.0955 9.919 20.2347 6.38995 20.2347C2.86091 20.2347 0 23.0955 0 26.6246C0 30.1536 2.86091 33.0145 6.38995 33.0145Z" fill="#3C7077"/>
<path opacity="0.4" d="M33.0145 33.0145C36.5436 33.0145 39.4044 30.1536 39.4044 26.6246C39.4044 23.0955 36.5436 20.2347 33.0145 20.2347C29.4855 20.2347 26.6246 23.0955 26.6246 26.6246C26.6246 30.1536 29.4855 33.0145 33.0145 33.0145Z" fill="#3C7077"/>
<path opacity="0.4" d="M59.6392 33.0145C63.1682 33.0145 66.0291 30.1536 66.0291 26.6246C66.0291 23.0955 63.1682 20.2347 59.6392 20.2347C56.1101 20.2347 53.2493 23.0955 53.2493 26.6246C53.2493 30.1536 56.1101 33.0145 59.6392 33.0145Z" fill="#3C7077"/>
<path opacity="0.4" d="M86.2637 33.0145C89.7927 33.0145 92.6536 30.1536 92.6536 26.6246C92.6536 23.0955 89.7927 20.2347 86.2637 20.2347C82.7346 20.2347 79.8738 23.0955 79.8738 26.6246C79.8738 30.1536 82.7346 33.0145 86.2637 33.0145Z" fill="#3C7077"/>
<path opacity="0.4" d="M112.888 33.0145C116.417 33.0145 119.278 30.1536 119.278 26.6246C119.278 23.0955 116.417 20.2347 112.888 20.2347C109.359 20.2347 106.498 23.0955 106.498 26.6246C106.498 30.1536 109.359 33.0145 112.888 33.0145Z" fill="#3C7077"/>
<path opacity="0.4" d="M139.513 33.0145C143.042 33.0145 145.903 30.1536 145.903 26.6246C145.903 23.0955 143.042 20.2347 139.513 20.2347C135.984 20.2347 133.123 23.0955 133.123 26.6246C133.123 30.1536 135.984 33.0145 139.513 33.0145Z" fill="#3C7077"/>
<path opacity="0.4" d="M166.137 33.0145C169.666 33.0145 172.527 30.1536 172.527 26.6246C172.527 23.0955 169.666 20.2347 166.137 20.2347C162.608 20.2347 159.748 23.0955 159.748 26.6246C159.748 30.1536 162.608 33.0145 166.137 33.0145Z" fill="#3C7077"/>
<path opacity="0.4" d="M6.38995 53.2492C9.919 53.2492 12.7798 50.3883 12.7798 46.8593C12.7798 43.3302 9.919 40.4694 6.38995 40.4694C2.86091 40.4694 0 43.3302 0 46.8593C0 50.3883 2.86091 53.2492 6.38995 53.2492Z" fill="#3C7077"/>
<path opacity="0.4" d="M33.0145 53.2492C36.5436 53.2492 39.4044 50.3883 39.4044 46.8593C39.4044 43.3302 36.5436 40.4694 33.0145 40.4694C29.4855 40.4694 26.6246 43.3302 26.6246 46.8593C26.6246 50.3883 29.4855 53.2492 33.0145 53.2492Z" fill="#3C7077"/>
<path opacity="0.4" d="M59.6392 53.2492C63.1682 53.2492 66.0291 50.3883 66.0291 46.8593C66.0291 43.3302 63.1682 40.4694 59.6392 40.4694C56.1101 40.4694 53.2493 43.3302 53.2493 46.8593C53.2493 50.3883 56.1101 53.2492 59.6392 53.2492Z" fill="#3C7077"/>
<path opacity="0.4" d="M86.2637 53.2492C89.7927 53.2492 92.6536 50.3883 92.6536 46.8593C92.6536 43.3302 89.7927 40.4694 86.2637 40.4694C82.7346 40.4694 79.8738 43.3302 79.8738 46.8593C79.8738 50.3883 82.7346 53.2492 86.2637 53.2492Z" fill="#3C7077"/>
<path opacity="0.4" d="M112.888 53.2492C116.417 53.2492 119.278 50.3883 119.278 46.8593C119.278 43.3302 116.417 40.4694 112.888 40.4694C109.359 40.4694 106.498 43.3302 106.498 46.8593C106.498 50.3883 109.359 53.2492 112.888 53.2492Z" fill="#3C7077"/>
<path opacity="0.4" d="M139.513 53.2492C143.042 53.2492 145.903 50.3883 145.903 46.8593C145.903 43.3302 143.042 40.4694 139.513 40.4694C135.984 40.4694 133.123 43.3302 133.123 46.8593C133.123 50.3883 135.984 53.2492 139.513 53.2492Z" fill="#3C7077"/>
<path opacity="0.4" d="M166.137 53.2492C169.666 53.2492 172.527 50.3883 172.527 46.8593C172.527 43.3302 169.666 40.4694 166.137 40.4694C162.608 40.4694 159.748 43.3302 159.748 46.8593C159.748 50.3883 162.608 53.2492 166.137 53.2492Z" fill="#3C7077"/>
<path opacity="0.4" d="M6.38995 73.4839C9.919 73.4839 12.7798 70.623 12.7798 67.094C12.7798 63.5649 9.919 60.7041 6.38995 60.7041C2.86091 60.7041 0 63.5649 0 67.094C0 70.623 2.86091 73.4839 6.38995 73.4839Z" fill="#3C7077"/>
<path opacity="0.4" d="M33.0145 73.4839C36.5436 73.4839 39.4044 70.623 39.4044 67.094C39.4044 63.5649 36.5436 60.7041 33.0145 60.7041C29.4855 60.7041 26.6246 63.5649 26.6246 67.094C26.6246 70.623 29.4855 73.4839 33.0145 73.4839Z" fill="#3C7077"/>
<path opacity="0.4" d="M6.38995 93.7185C9.919 93.7185 12.7798 90.8577 12.7798 87.3287C12.7798 83.7996 9.919 80.9388 6.38995 80.9388C2.86091 80.9388 0 83.7996 0 87.3287C0 90.8577 2.86091 93.7185 6.38995 93.7185Z" fill="#3C7077"/>
<path opacity="0.4" d="M33.0145 93.7185C36.5436 93.7185 39.4044 90.8577 39.4044 87.3287C39.4044 83.7996 36.5436 80.9388 33.0145 80.9388C29.4855 80.9388 26.6246 83.7996 26.6246 87.3287C26.6246 90.8577 29.4855 93.7185 33.0145 93.7185Z" fill="#3C7077"/>
<path opacity="0.4" d="M59.6392 93.7185C63.1682 93.7185 66.0291 90.8577 66.0291 87.3287C66.0291 83.7996 63.1682 80.9388 59.6392 80.9388C56.1101 80.9388 53.2493 83.7996 53.2493 87.3287C53.2493 90.8577 56.1101 93.7185 59.6392 93.7185Z" fill="#3C7077"/>
<path opacity="0.4" d="M59.6392 73.4839C63.1682 73.4839 66.0291 70.623 66.0291 67.094C66.0291 63.5649 63.1682 60.7041 59.6392 60.7041C56.1101 60.7041 53.2493 63.5649 53.2493 67.094C53.2493 70.623 56.1101 73.4839 59.6392 73.4839Z" fill="#3C7077"/>
<path opacity="0.4" d="M86.2637 73.4839C89.7927 73.4839 92.6536 70.623 92.6536 67.094C92.6536 63.5649 89.7927 60.7041 86.2637 60.7041C82.7346 60.7041 79.8738 63.5649 79.8738 67.094C79.8738 70.623 82.7346 73.4839 86.2637 73.4839Z" fill="#3C7077"/>
<path opacity="0.4" d="M112.888 73.4839C116.417 73.4839 119.278 70.623 119.278 67.094C119.278 63.5649 116.417 60.7041 112.888 60.7041C109.359 60.7041 106.498 63.5649 106.498 67.094C106.498 70.623 109.359 73.4839 112.888 73.4839Z" fill="#3C7077"/>
<path opacity="0.4" d="M139.513 73.4839C143.042 73.4839 145.903 70.623 145.903 67.094C145.903 63.5649 143.042 60.7041 139.513 60.7041C135.984 60.7041 133.123 63.5649 133.123 67.094C133.123 70.623 135.984 73.4839 139.513 73.4839Z" fill="#3C7077"/>
<path opacity="0.4" d="M166.137 73.4839C169.666 73.4839 172.527 70.623 172.527 67.094C172.527 63.5649 169.666 60.7041 166.137 60.7041C162.608 60.7041 159.748 63.5649 159.748 67.094C159.748 70.623 162.608 73.4839 166.137 73.4839Z" fill="#3C7077"/>
</g>
</svg>
